<?xml version="1.0" standalone="no"?>
<!DOCTYPE svg PUBLIC "-//W3C//DTD SVG 20010904//EN"
 "http://www.w3.org/TR/2001/REC-SVG-20010904/DTD/svg10.dtd">
<svg version="1.0" xmlns="http://www.w3.org/2000/svg"
 width="147.000000pt" height="147.000000pt" viewBox="0 0 147.000000 147.000000"
 preserveAspectRatio="xMidYMid meet">
<metadata>
Created by potrace 1.14, written by Peter Selinger 2001-2017
</metadata>
<g transform="translate(0.000000,147.000000) scale(0.100000,-0.100000)"
fill="#000000" stroke="none">
<path d="M555 1321 c-33 -9 -70 -23 -82 -29 -30 -17 -40 -15 -46 8 -5 19 -14
20 -125 20 l-119 0 -5 -295 c-3 -162 -3 -428 0 -590 l5 -295 78 0 79 0 0 61 0
61 35 -31 c82 -72 201 -111 337 -111 145 0 239 28 336 101 l52 40 0 -61 0 -60
79 0 79 0 3 295 c2 162 2 428 0 590 l-3 295 -118 0 c-108 0 -119 -2 -131 -21
-14 -20 -14 -20 -59 -1 -106 45 -283 56 -395 23z m231 -122 c63 -12 154 -55
154 -74 0 -15 -209 -568 -219 -578 -4 -4 -57 126 -118 288 l-111 296 37 24
c45 28 111 47 182 54 8 0 42 -4 75 -10z m-270 -514 l119 -316 85 3 85 3 115
307 c63 169 118 308 121 308 16 0 43 -126 47 -225 7 -170 -24 -291 -99 -385
-98 -124 -287 -162 -436 -88 -52 26 -123 98 -151 155 -47 92 -70 253 -53 373
9 69 37 180 45 180 2 0 57 -142 122 -315z"/>
</g>
</svg>
